<svg xmlns="http://www.w3.org/2000/svg" width="2560" height="2560" viewBox="0 0 1920 1920" preserveAspectRatio="xMidYMid meet" xmlns:v="https://vecta.io/nano"><path d="M711.5 553.8c-6.2 3.9-6 2-6.5 45l-.5 39.6-11-.5c-20.2-.8-70.9-.1-84 1.1-14.2 1.3-19 3.1-22.9 8.3-2 2.7-2.1 4.2-2.4 32l-.3 29.3-13.2 2.2c-16.9 2.8-39.9 8.7-60.2 15.3-21.4 6.9-26 9-28.5 13.1-2 3.3-2 4.1-2 272.7l2 272.6c2.1 3.4 7.3 6.5 10.9 6.5 1.1 0 9.5-2.5 18.6-5.5 40.4-13.5 76.5-20 126-22.5 85.6-4.5 177 16.4 247.1 56.5 21.1 12.1 45.3 29.4 60.9 43.5l5.5 5h8.7 8.6l8.6-7.3c78.3-66.7 192.8-103.4 304.8-97.8 50.2 2.6 84.4 8.7 126.9 22.8 16.3 5.4 17.4 5.6 21.3 4.4 3-.9 4.9-2.3 6.9-5.3l2.7-4.2.3-267-.8-270.7c-1.8-6.5-4.9-8.4-23.3-14.5-25.6-8.4-57.7-16.1-82.7-19.7-1.3-.2-1.6-4.5-2-29.9-.5-28.2-.6-29.8-2.6-32.5-3.5-4.7-7.1-6.1-19.9-7.4-13.2-1.4-83.4-1.9-89.7-.6l-3.8.8v-38.3c0-42.9-.1-43.2-7.1-47-5.8-3.1-31.1-2.1-58.9 2.3-67.3 10.6-132 42.8-179.7 89.2l-9.2 9-7.6-6.9c-30.9-28.3-56.1-45.6-89.7-61.9-43-20.8-86.5-31.7-131.3-33.1-15.6-.5-17.3-.4-20 1.4zm43.5 26.8c31.2 4 61.8 13.4 92.5 28.3 32.7 15.9 58.4 34.1 84.3 59.7l10.2 10.2v244.6l-.5 244.6c-.2 0-5.1-3.9-10.7-8.6-19.5-16.3-40-30-63.3-42-39.6-20.5-77.9-31.6-122.7-35.5l-13.8-1.2V829.3 577.9l6.3.6 17.7 2.1zm428 248.2v250.9l-11.7.6c-23 1.3-52.3 6.9-75.8 14.4-43.2 13.9-80 34.6-115.2 65.1-6 5.3-8.3 6.7-8.5 5.5-.2-.9-.1-111 .2-244.6l.5-242.9 11.6-11.3c46.1-44.4 100.5-72.6 162.4-84.1 7.9-1.4 28-4 34.3-4.3l2.2-.1v250.8zM700.8 665.3c.9.7 1.2 45.1 1.2 216.9 0 238.3-.5 220.3 6.2 224.3 2.7 1.5 6.3 2 20.3 2.6 78.6 3.5 149 35.1 205.3 92.1l8.2 8.4-.2 23.7-.3 23.7-10-7.6c-35.1-26.4-81.3-49.3-128.4-63.5-51.1-15.4-101.5-21.8-163.3-20.6l-28.8.6-.2-248.2V667.3c.3-1.8 1.1-2.3 5-2.6 8.6-.8 83.7-.2 85 .6zm592.1-.7l6.1.7v250.3 250.3l-27.7-.6c-64.3-1.3-118.9 6.5-174.6 25.2-44.5 14.8-83.6 35.5-121.6 64.3l-3.1 2.3V1233v-24.1l12.8-12.7c29.3-29.5 61.4-50.5 100.6-66.2 32.4-12.9 72.7-21 105.1-21 11.5 0 15.6-1.5 19.2-6.9l2.3-3.4V881.9 665.1l4.3-.4c7.5-.6 70.2-.7 76.6-.1zM583 961l1.9 229.9c3.2 6.2 5.6 6.7 24 5 19.2-1.7 70.2-1.8 89.1-.1 64.1 5.9 124.8 24.1 177.5 53.5 19.5 10.9 48 31 62.4 44l4.2 3.7-.3 12.5-.3 12.5-12.6-8.8c-51.1-35.8-112.6-60.9-179.9-73.3-28.8-5.3-57.7-7.9-89.5-7.9-49.1 0-88.5 4.8-132.4 16l-19.5 5c-.2 0 .4-499.3.7-499.6.1-.1 5.6-1.9 12.2-3.9 22.6-6.9 52.8-14.1 60.3-14.4l2.2-.1v226zm762.5-222.4c13.5 2.2 34.8 7.5 50 12.4l12.5 4.1v249.5l-1.3 249.4c-.8 0-5.1-1.1-9.8-2.6-45.9-13.9-96.3-20.2-152.9-19.1-36.9.7-64.1 3.9-97.3 11.3-60.8 13.6-115.7 37.2-162.2 69.9-6.6 4.7-12.2 8.5-12.5 8.5s-.3-5.8 0-12.9l.5-13 7.5-6.4c58.6-49.9 137.7-82.4 223.5-91.9 16.8-1.8 89-1.8 104.2.1l11.3 1.4 3.5-2.7c1.9-1.5 4.3-3.9 5.3-5.4 1.6-2.5 1.7-16.3 1.9-228.2l.3-226.2c0-.4 1.2-.5 2.8-.3 1.5.3 7.2 1.2 12.7 2.1z"/></svg>